<?xml version="1.0" encoding="UTF-8" standalone="no"?>
<!DOCTYPE svg PUBLIC "-//W3C//DTD SVG 1.1//EN" "http://www.w3.org/Graphics/SVG/1.1/DTD/svg11.dtd">
<svg width="100%" height="100%" viewBox="0 0 1000 1000" version="1.1" xmlns="http://www.w3.org/2000/svg" xmlns:xlink="http://www.w3.org/1999/xlink" xml:space="preserve" xmlns:serif="http://www.serif.com/" style="fill-rule:evenodd;clip-rule:evenodd;stroke-linejoin:round;stroke-miterlimit:2;">
    <g transform="matrix(11.2379,0,0,11.2379,-801.799,-119.546)">
        <path d="M140.47,95.29L91.21,95.29C87.91,95.29 85.23,92.61 85.23,89.31L85.23,21.04C85.23,17.74 87.91,15.06 91.21,15.06L140.47,15.06C143.77,15.06 146.45,17.74 146.45,21.04L146.45,89.32C146.45,92.61 143.77,95.29 140.47,95.29ZM91.21,15.92C88.39,15.92 86.1,18.21 86.1,21.03L86.1,89.31C86.1,92.13 88.39,94.42 91.21,94.42L140.47,94.42C143.29,94.42 145.58,92.13 145.58,89.31L145.58,21.04C145.58,18.22 143.29,15.93 140.47,15.93L91.21,15.93L91.21,15.92Z" style="fill:rgb(64,64,63);fill-rule:nonzero;"/>
        <path d="M129.02,26.35L102.75,26.35C101.74,26.35 100.92,25.53 100.92,24.52L100.92,16.8C100.92,15.79 101.74,14.97 102.75,14.97L129.02,14.97C130.03,14.97 130.85,15.79 130.85,16.8L130.85,24.52C130.85,25.53 130.03,26.35 129.02,26.35ZM102.75,15.84C102.22,15.84 101.78,16.27 101.78,16.81L101.78,24.53C101.78,25.06 102.21,25.5 102.75,25.5L129.02,25.5C129.55,25.5 129.99,25.07 129.99,24.53L129.99,16.8C129.99,16.27 129.56,15.83 129.02,15.83L102.75,15.83L102.75,15.84Z" style="fill:rgb(64,64,63);fill-rule:nonzero;"/>
        <path d="M137.16,89.7L94.53,89.7C91.78,89.7 89.54,87.46 89.54,84.71L89.54,25.63C89.54,22.88 91.78,20.64 94.53,20.64L101.54,20.64L101.54,24.51C101.54,25.18 102.08,25.72 102.75,25.72L129.02,25.72C129.69,25.72 130.23,25.18 130.23,24.51L130.23,20.64L137.15,20.64C139.9,20.64 142.14,22.88 142.14,25.63L142.14,84.71C142.14,87.46 139.9,89.7 137.16,89.7ZM94.53,21.02C91.99,21.02 89.92,23.09 89.92,25.63L89.92,84.71C89.92,87.25 91.99,89.32 94.53,89.32L137.15,89.32C139.69,89.32 141.76,87.25 141.76,84.71L141.76,25.63C141.76,23.09 139.69,21.02 137.15,21.02L130.6,21.02L130.6,24.52C130.6,25.4 129.89,26.11 129.01,26.11L102.74,26.11C101.86,26.11 101.15,25.4 101.15,24.52L101.15,21.02L94.53,21.02Z" style="fill:rgb(64,64,63);fill-rule:nonzero;"/>
        <rect x="92.37" y="33.44" width="32.77" height="0.43" style="fill:rgb(64,64,63);fill-rule:nonzero;"/>
        <rect x="92.37" y="39.16" width="32.77" height="0.43" style="fill:rgb(64,64,63);fill-rule:nonzero;"/>
        <rect x="92.37" y="50.62" width="32.77" height="0.43" style="fill:rgb(64,64,63);fill-rule:nonzero;"/>
        <rect x="92.37" y="62.07" width="32.77" height="0.43" style="fill:rgb(64,64,63);fill-rule:nonzero;"/>
        <rect x="92.37" y="67.8" width="32.77" height="0.43" style="fill:rgb(64,64,63);fill-rule:nonzero;"/>
        <rect x="92.37" y="73.52" width="32.77" height="0.43" style="fill:rgb(64,64,63);fill-rule:nonzero;"/>
        <path d="M134.14,40.01C132.01,40.01 130.28,38.28 130.28,36.15C130.28,34.02 132.01,32.29 134.14,32.29C136.27,32.29 138,34.02 138,36.15C138,38.28 136.27,40.01 134.14,40.01ZM134.14,32.57C132.16,32.57 130.56,34.18 130.56,36.15C130.56,38.13 132.17,39.73 134.14,39.73C136.12,39.73 137.72,38.12 137.72,36.15C137.73,34.18 136.12,32.57 134.14,32.57Z" style="fill:rgb(64,64,63);fill-rule:nonzero;"/>
        <path d="M134.14,55.31C132.01,55.31 130.28,53.58 130.28,51.45C130.28,49.32 132.01,47.59 134.14,47.59C136.27,47.59 138,49.32 138,51.45C138,53.58 136.27,55.31 134.14,55.31ZM134.14,47.87C132.16,47.87 130.56,49.48 130.56,51.45C130.56,53.43 132.17,55.03 134.14,55.03C136.12,55.03 137.72,53.42 137.72,51.45C137.73,49.48 136.12,47.87 134.14,47.87Z" style="fill:rgb(64,64,63);fill-rule:nonzero;"/>
        <path d="M134.14,70.61C132.01,70.61 130.28,68.88 130.28,66.75C130.28,64.62 132.01,62.89 134.14,62.89C136.27,62.89 138,64.62 138,66.75C138,68.88 136.27,70.61 134.14,70.61ZM134.14,63.17C132.16,63.17 130.56,64.78 130.56,66.75C130.56,68.73 132.17,70.33 134.14,70.33C136.12,70.33 137.72,68.72 137.72,66.75C137.73,64.78 136.12,63.17 134.14,63.17Z" style="fill:rgb(64,64,63);fill-rule:nonzero;"/>
    </g>
    <g transform="matrix(11.2379,0,0,11.2379,-798.231,-118.375)">
        <path d="M133.31,38.64L131.47,35.89C131.34,35.69 131.39,35.42 131.59,35.29C131.79,35.16 132.06,35.21 132.19,35.41L133.47,37.32L139.4,31.76C139.57,31.6 139.85,31.61 140.01,31.78C140.17,31.95 140.16,32.23 139.99,32.39L133.31,38.64Z" style="fill:rgb(244,154,76);fill-rule:nonzero;"/>
    </g>
</svg>
