<?xml version="1.0" encoding="UTF-8" standalone="no"?>
<!DOCTYPE svg PUBLIC "-//W3C//DTD SVG 1.1//EN" "http://www.w3.org/Graphics/SVG/1.1/DTD/svg11.dtd">
<svg width="100%" height="100%" viewBox="0 0 1000 1000" version="1.1" xmlns="http://www.w3.org/2000/svg" xmlns:xlink="http://www.w3.org/1999/xlink" xml:space="preserve" xmlns:serif="http://www.serif.com/" style="fill-rule:evenodd;clip-rule:evenodd;stroke-linejoin:round;stroke-miterlimit:2;">
    <g transform="matrix(11.8689,0,0,11.8689,-908.719,-197.416)">
        <path d="M88.92,28.99L88.92,46.32L106.25,46.32L106.25,28.99L88.92,28.99ZM101.58,41.64L93.6,41.64L93.6,33.66L101.58,33.66L101.58,41.64Z" style="fill:rgb(64,64,63);fill-rule:nonzero;"/>
        <path d="M88.92,71.2L88.92,88.53L106.25,88.53L106.25,71.2L88.92,71.2ZM101.58,83.85L93.6,83.85L93.6,75.87L101.58,75.87L101.58,83.85Z" style="fill:rgb(64,64,63);fill-rule:nonzero;"/>
        <path d="M131.13,28.99L131.13,46.32L148.46,46.32L148.46,28.99L131.13,28.99ZM143.79,41.64L135.81,41.64L135.81,33.66L143.79,33.66L143.79,41.64Z" style="fill:rgb(64,64,63);fill-rule:nonzero;"/>
        <path d="M126.3,28.99L110.46,28.99L110.46,34.56L120.85,34.56L120.85,46.32L126.3,46.32L126.3,28.99Z" style="fill:rgb(64,64,63);fill-rule:nonzero;"/>
        <path d="M111.32,38.89L111.32,51.64L88.92,51.64L88.92,66.49L94.37,66.49L94.37,56.59L116.15,56.59L116.15,38.89L111.32,38.89Z" style="fill:rgb(64,64,63);fill-rule:nonzero;"/>
        <rect x="98.7" y="61.17" width="8.05" height="5.32" style="fill:rgb(64,64,63);fill-rule:nonzero;"/>
        <rect x="110.46" y="81.1" width="6.44" height="7.43" style="fill:rgb(64,64,63);fill-rule:nonzero;"/>
        <path d="M136.7,51.64L121.23,51.64L121.23,61.17L111.32,61.17L111.32,76.77L121.23,76.77L121.23,88.53L126.3,88.53L126.3,71.2L116.89,71.2L116.89,66L126.3,66L126.3,56.09L131.13,56.09L131.13,61.17L136.7,61.17L136.7,51.64Z" style="fill:rgb(64,64,63);fill-rule:nonzero;"/>
        <path d="M143.14,51.64L143.14,66L131.13,66L131.13,71.2L148.46,71.2L148.46,51.64L143.14,51.64Z" style="fill:rgb(64,64,63);fill-rule:nonzero;"/>
        <path d="M148.46,76.02L131.13,76.02L131.13,88.53L136.45,88.53L136.45,81.22L143.14,81.22L143.14,88.53L148.46,88.53L148.46,76.02Z" style="fill:rgb(64,64,63);fill-rule:nonzero;"/>
    </g>
    <g transform="matrix(11.8689,0,0,11.8689,-911.626,-199.908)">
        <path d="M87.7,21L80.55,21L80.55,28.15L82.5,28.15L82.5,22.95L87.7,22.95L87.7,21Z" style="fill:rgb(244,154,76);fill-rule:nonzero;"/>
        <path d="M157.32,28.15L157.32,21L150.18,21L150.18,22.95L155.37,22.95L155.37,28.15L157.32,28.15Z" style="fill:rgb(244,154,76);fill-rule:nonzero;"/>
        <path d="M80.55,89.79L80.55,96.94L87.7,96.94L87.7,94.99L82.5,94.99L82.5,89.79L80.55,89.79Z" style="fill:rgb(244,154,76);fill-rule:nonzero;"/>
        <path d="M150.18,96.94L157.32,96.94L157.32,89.79L155.37,89.79L155.37,94.99L150.18,94.99L150.18,96.94Z" style="fill:rgb(244,154,76);fill-rule:nonzero;"/>
    </g>
</svg>
